<svg width="18" height="18" viewBox="0 0 18 18" fill="none" xmlns="http://www.w3.org/2000/svg">
<g clip-path="url(#clip0_1899_17756)">
<path d="M7.58414 4.78598C9.84057 4.2336 12.4795 6.03894 13.2597 9.22466C14.0398 12.4105 12.5333 15.2308 10.2769 15.7834C8.02042 16.3359 5.38148 14.5306 4.60139 11.3447C3.8214 8.15886 5.32768 5.33849 7.58414 4.78598Z" fill="#EAEAEA" stroke="black" stroke-width="1.5"/>
<path d="M8.35722 6.58161C10.5304 6.12478 12.5531 6.15177 14.054 6.53265C15.6078 6.92699 16.3572 7.62059 16.4987 8.29296C16.64 8.96536 16.2332 9.90196 14.9697 10.8886C13.7492 11.8416 11.9086 12.6807 9.73539 13.1375C7.56244 13.5943 5.5404 13.5671 4.03961 13.1863C2.4856 12.7919 1.73627 12.0984 1.59491 11.426C1.45364 10.7536 1.86031 9.81696 3.12391 8.83034C4.34434 7.87751 6.18434 7.03843 8.35722 6.58161Z" fill="#EAEAEA" stroke="black" stroke-width="1.5"/>
<mask id="path-3-inside-1_1899_17756" fill="white">
<path d="M6.84443 1.74288C10.2936 0.762547 12.5126 3.61041 13.3323 5.23973C13.3625 5.29977 13.3882 5.36072 13.4118 5.42158C13.4577 5.51721 13.487 5.61632 13.5014 5.71944C13.829 7.23626 12.2774 8.90562 9.82838 9.66465C7.11765 10.5047 4.18671 10.3238 3.36706 8.69443C2.54773 7.06482 3.66951 2.6454 6.84443 1.74288Z"/>
</mask>
<path d="M6.84443 1.74288C10.2936 0.762547 12.5126 3.61041 13.3323 5.23973C13.3625 5.29977 13.3882 5.36072 13.4118 5.42158C13.4577 5.51721 13.487 5.61632 13.5014 5.71944C13.829 7.23626 12.2774 8.90562 9.82838 9.66465C7.11765 10.5047 4.18671 10.3238 3.36706 8.69443C2.54773 7.06482 3.66951 2.6454 6.84443 1.74288Z" fill="#EAEAEA"/>
<path d="M6.84443 1.74288L6.40139 0.308198L6.40134 0.308214L6.84443 1.74288ZM13.3323 5.23973L14.6796 4.59649L14.6795 4.59649L13.3323 5.23973ZM13.4118 5.42158L12.0059 5.93286L12.0269 5.98693L12.052 6.03932L13.4118 5.42158ZM13.5014 5.71944L12.0077 5.89433L12.0153 5.94905L12.027 6.00314L13.5014 5.71944ZM9.82838 9.66465L10.3052 11.0893L10.3053 11.0893L9.82838 9.66465ZM3.36706 8.69443L2.01962 9.33736L2.01977 9.33766L3.36706 8.69443ZM6.84443 1.74288L7.28747 3.17757C8.48594 2.83694 9.42063 3.14273 10.1961 3.70782C11.0245 4.31145 11.6448 5.20671 11.985 5.88296L13.3323 5.23973L14.6795 4.59649C14.2001 3.64343 13.3011 2.3001 11.9527 1.31755C10.5515 0.296464 8.65209 -0.331504 6.40139 0.308198L6.84443 1.74288ZM13.3323 5.23973L11.985 5.88296C11.9858 5.88455 11.992 5.89731 12.0059 5.93286L13.4118 5.42158L14.8178 4.91029C14.7843 4.82412 14.7392 4.71499 14.6796 4.59649L13.3323 5.23973ZM13.4118 5.42158L12.052 6.03932C12.0282 5.98969 12.0139 5.93888 12.0077 5.89433L13.5014 5.71944L14.9951 5.54454C14.9601 5.29377 14.8872 5.04472 14.7716 4.80383L13.4118 5.42158ZM13.5014 5.71944L12.027 6.00314C12.0547 6.13147 12.0437 6.46344 11.5874 6.95375C11.1417 7.43274 10.381 7.92093 9.3515 8.24002L9.82838 9.66465L10.3053 11.0893C11.7247 10.6493 12.9644 9.92333 13.8248 8.99868C14.6747 8.08534 15.2756 6.82422 14.9758 5.43573L13.5014 5.71944ZM9.82838 9.66465L9.35154 8.24001C8.14906 8.61265 6.95756 8.73684 6.0443 8.6249C5.07573 8.50619 4.78262 8.18692 4.71435 8.0512L3.36706 8.69443L2.01977 9.33766C2.77115 10.8313 4.35333 11.4172 5.73283 11.5862C7.16762 11.7621 8.79696 11.5567 10.3052 11.0893L9.82838 9.66465ZM3.36706 8.69443L4.7145 8.0515C4.67581 7.97456 4.59206 7.68933 4.62354 7.16606C4.65308 6.67501 4.77801 6.09639 5.00945 5.52416C5.48657 4.34452 6.29287 3.4603 7.28752 3.17755L6.84443 1.74288L6.40134 0.308214C4.22107 0.927988 2.87901 2.70473 2.20635 4.36784C1.8629 5.21698 1.66257 6.10518 1.613 6.9293C1.56536 7.7212 1.64864 8.59951 2.01962 9.33736L3.36706 8.69443Z" fill="black" mask="url(#path-3-inside-1_1899_17756)"/>
<path d="M6.44698 6.92211C6.44698 6.92211 6.55874 5.25583 7.71972 4.49947" stroke="black" stroke-width="1.5" stroke-linecap="round"/>
</g>
<defs>
<clipPath id="clip0_1899_17756">
<rect width="18" height="18" fill="white"/>
</clipPath>
</defs>
</svg>
