<svg width="18" height="18" viewBox="0 0 18 18" fill="none" xmlns="http://www.w3.org/2000/svg">
<g opacity="0.6">
<path d="M8.64014 4.67999V6.83999C8.64014 7.23763 8.96249 7.55999 9.36014 7.55999H11.5201M12.9601 1.79999H7.91997C7.12468 1.79999 6.47997 2.44469 6.47997 3.23998V4.67999M12.9601 1.79999H13.3618C13.5646 1.79999 13.7576 1.88539 13.8972 2.03235C14.1072 2.25321 14.4397 2.59327 14.7601 2.87999C15.0113 3.1047 15.4058 3.50798 15.6421 3.75307C15.7699 3.88561 15.8401 4.06258 15.8401 4.24669L15.8401 4.67999M12.9601 1.79999V3.95999C12.9601 4.35763 13.2825 4.67999 13.6801 4.67999H15.8401M15.8401 4.67999L15.8399 11.88C15.8399 12.6753 15.1952 13.32 14.3999 13.32H11.5199M10.4401 5.75999C10.1197 5.47327 9.78717 5.13322 9.57725 4.91236C9.43756 4.76539 9.24456 4.67999 9.0418 4.67999H3.59997C2.80468 4.67999 2.15997 5.32469 2.15997 6.11998L2.15991 14.7599C2.15991 15.5552 2.80461 16.2 3.59991 16.2L10.0799 16.2C10.8752 16.2 11.5199 15.5553 11.5199 14.76L11.5201 7.12669C11.5201 6.94258 11.4499 6.76561 11.3221 6.63307C11.0858 6.38798 10.6913 5.9847 10.4401 5.75999Z" stroke="black" stroke-width="1.5" stroke-linecap="round" stroke-linejoin="round"/>
</g>
</svg>
