<svg width="18" height="18" viewBox="0 0 18 18" fill="none" xmlns="http://www.w3.org/2000/svg">
<path d="M16.6096 5.63308C16.9281 5.89769 16.9719 6.37063 16.7075 6.68923C15.9879 7.55543 14.9523 7.71291 13.9951 7.64743C13.5172 7.6147 13.0083 7.52205 12.4976 7.4069C12.6939 7.91683 12.8598 8.43683 12.9526 8.94753C13.1381 9.96804 13.0498 11.0524 12.2702 11.9775C11.4632 12.9464 10.4128 13.2353 9.36503 13.2049C8.92269 13.192 8.46913 13.1201 8.01938 13.0204C8.20021 13.4106 8.36056 13.8021 8.47119 14.1835C8.73925 15.1078 8.77307 16.145 8.02739 17.0338C7.76116 17.3511 7.28807 17.3924 6.97077 17.1263C6.65346 16.86 6.61207 16.3869 6.87833 16.0696C7.16948 15.7225 7.22898 15.2854 7.0306 14.6013C6.8449 13.9611 6.47816 13.2594 6.05472 12.4554C5.18944 12.178 4.43469 11.9387 3.77192 11.867C3.06382 11.7904 2.64365 11.9249 2.35238 12.2719C2.08615 12.5892 1.61306 12.6305 1.29576 12.3644C0.978495 12.0981 0.937076 11.625 1.20331 11.3077C1.94912 10.419 2.97648 10.2722 3.93328 10.3757C4.32783 10.4184 4.74101 10.5078 5.15644 10.6181C4.9802 10.1927 4.83127 9.75867 4.74183 9.32553C4.52987 8.29894 4.63197 7.2144 5.44609 6.25139C6.22174 5.32299 7.2743 5.04775 8.3115 5.05314C8.83056 5.05589 9.37147 5.12898 9.90773 5.23373C9.70563 4.75073 9.52604 4.26575 9.41082 3.80075C9.18008 2.86942 9.15535 1.82231 9.88346 0.963143C10.1513 0.647434 10.6247 0.608494 10.9406 0.876203C11.2563 1.14399 11.2951 1.61737 11.0275 1.93331C10.7574 2.25218 10.6833 2.70207 10.8661 3.43983C11.0307 4.10441 11.3637 4.84313 11.7444 5.67472C12.6294 5.90517 13.4148 6.10484 14.0978 6.15159C14.8561 6.20344 15.2863 6.05239 15.5534 5.73103C15.8181 5.41261 16.291 5.36855 16.6096 5.63308ZM10.6748 6.94946C9.80333 6.72922 9.00593 6.55687 8.3034 6.55317C7.53581 6.54919 6.98776 6.74412 6.59515 7.21557L6.59139 7.22006C6.1511 7.74089 6.06408 8.31668 6.20979 9.02242C6.34855 9.69436 6.68866 10.4182 7.09862 11.2113C7.95081 11.4773 8.72283 11.6866 9.40862 11.7066C10.1289 11.7275 10.6809 11.5418 11.1173 11.0178L11.1211 11.0133C11.5172 10.5448 11.614 9.97123 11.4768 9.21597C11.3512 8.52477 11.043 7.76941 10.6748 6.94946Z" fill="black"/>
<path d="M7.84033 8.06543L10.1385 9.99379" stroke="black" stroke-width="1.5" stroke-linecap="round"/>
<path d="M12.1792 2.89453L14.4773 4.82289" stroke="black" stroke-width="1.5" stroke-linecap="round"/>
<path d="M3.50146 13.2363L5.7996 15.1647" stroke="black" stroke-width="1.5" stroke-linecap="round"/>
</svg>
