<svg width="479" height="112" viewBox="0 0 479 112" fill="none" xmlns="http://www.w3.org/2000/svg">
<path d="M36.4036 89.709C25.3959 89.709 16.555 87.0654 9.88099 81.7782C3.29366 76.491 0 68.9502 0 59.1559H21.4522C21.4522 63.2297 22.839 66.4367 25.6126 68.7769C28.4729 71.0304 32.7199 72.1572 38.3538 72.1572C42.2542 72.1572 45.3745 71.3772 47.7148 69.817C50.1417 68.1702 51.3552 66.0466 51.3552 63.4464C51.3552 61.0195 50.315 59.2426 48.2348 58.1158C46.1546 56.989 43.0777 56.0356 39.0039 55.2555L31.8532 53.9554C25.6992 52.8286 20.4987 51.4852 16.2516 49.925C12.0912 48.3648 8.53752 45.8513 5.59056 42.3842C2.73027 38.8306 1.30013 34.0201 1.30013 27.9528C1.30013 22.4923 2.77361 17.7684 5.72057 13.7814C8.66754 9.70764 12.7846 6.63066 18.0718 4.55045C23.359 2.38357 29.4696 1.30013 36.4036 1.30013C46.8914 1.30013 55.3422 3.81371 61.7562 8.84088C68.2569 13.8681 71.5072 21.1054 71.5072 30.5531H50.315C50.315 22.7523 45.0278 18.8519 34.4535 18.8519C31.0731 18.8519 28.2562 19.5886 26.0026 21.0621C23.8357 22.4489 22.7523 24.3991 22.7523 26.9127C22.7523 28.9929 23.7924 30.5964 25.8726 31.7232C27.9528 32.7633 31.0298 33.6734 35.1035 34.4534L42.2542 35.7536C48.4082 36.8804 53.5654 38.2238 57.7258 39.784C61.9729 41.3441 65.5266 43.9011 68.3868 47.4548C71.3338 50.9218 72.8073 55.6889 72.8073 61.7562C72.8073 70.6838 69.557 77.5744 63.0563 82.4283C56.5557 87.2821 47.6714 89.709 36.4036 89.709Z" fill="black"/>
<path d="M76.6569 0H97.589V31.2031C99.2358 28.7762 101.533 26.6527 104.48 24.8325C107.427 23.0123 110.937 22.1022 115.011 22.1022C122.812 22.1022 128.749 24.5725 132.823 29.513C136.983 34.3668 139.063 40.5641 139.063 48.1048V88.4089H118.261V50.7051C118.261 46.8914 117.394 43.9877 115.661 41.9942C113.927 40.0007 111.544 39.0039 108.51 39.0039C104.523 39.0039 101.663 40.3907 99.9292 43.1643C98.2824 45.8513 97.459 49.665 97.459 54.6055V88.4089H76.6569V0Z" fill="black"/>
<path d="M176.076 89.709C169.576 89.709 163.682 88.3222 158.394 85.5486C153.194 82.775 149.077 78.8312 146.043 73.7174C143.096 68.6035 141.623 62.6663 141.623 55.9056C141.623 49.4916 143.14 43.7277 146.173 38.6139C149.207 33.4133 153.324 29.3829 158.524 26.5227C163.812 23.5757 169.662 22.1022 176.076 22.1022C182.49 22.1022 188.297 23.5757 193.498 26.5227C198.785 29.3829 202.946 33.4133 205.979 38.6139C209.013 43.7277 210.53 49.4916 210.53 55.9056C210.53 62.6663 209.013 68.6035 205.979 73.7174C203.032 78.8312 198.915 82.775 193.628 85.5486C188.427 88.3222 182.577 89.709 176.076 89.709ZM176.076 72.8073C180.41 72.8073 183.747 71.3338 186.087 68.3868C188.514 65.3532 189.728 61.1928 189.728 55.9056C189.728 51.1385 188.514 47.1514 186.087 43.9444C183.66 40.6507 180.323 39.0039 176.076 39.0039C171.829 39.0039 168.492 40.6507 166.065 43.9444C163.638 47.1514 162.425 51.1385 162.425 55.9056C162.425 61.1928 163.595 65.3532 165.935 68.3868C168.362 71.3338 171.742 72.8073 176.076 72.8073Z" fill="black"/>
<path d="M213.724 23.4023H233.876V31.2031C235.436 28.9496 237.907 26.8694 241.287 24.9625C244.754 23.0556 248.568 22.1022 252.728 22.1022C258.362 22.1022 263.432 23.489 267.94 26.2626C272.533 29.0362 276.13 32.98 278.731 38.0938C281.331 43.2077 282.631 49.1449 282.631 55.9056C282.631 62.3196 281.288 68.1268 278.601 73.3273C276 78.4412 272.403 82.4716 267.81 85.4186C263.302 88.2788 258.275 89.709 252.728 89.709C248.568 89.709 244.884 88.7989 241.677 86.9787C238.47 85.0719 236.086 82.9483 234.526 80.6081V111.811H213.724V23.4023ZM248.178 72.8073C252.425 72.8073 255.762 71.0738 258.189 67.6068C260.616 64.1398 261.829 60.2394 261.829 55.9056C261.829 50.7051 260.616 46.588 258.189 43.5544C255.762 40.5207 252.425 39.0039 248.178 39.0039C243.67 39.0039 240.247 40.7374 237.907 44.2044C235.653 47.5848 234.526 51.4852 234.526 55.9056C234.526 60.326 235.653 64.2698 237.907 67.7368C240.247 71.1171 243.67 72.8073 248.178 72.8073Z" fill="black"/>
<path d="M442.596 89.709C431.589 89.709 422.748 87.0654 416.074 81.7782C409.486 76.491 406.193 68.9502 406.193 59.1559H427.645C427.645 63.2297 429.032 66.4367 431.805 68.7769C434.666 71.0304 438.913 72.1572 444.547 72.1572C448.447 72.1572 451.567 71.3772 453.907 69.817C456.334 68.1702 457.548 66.0466 457.548 63.4464C457.548 61.0195 456.508 59.2426 454.428 58.1158C452.347 56.989 449.27 56.0356 445.197 55.2555L438.046 53.9554C431.892 52.8286 426.691 51.4852 422.444 49.925C418.284 48.3648 414.73 45.8513 411.783 42.3842C408.923 38.8306 407.493 34.0201 407.493 27.9528C407.493 22.4923 408.966 17.7684 411.913 13.7814C414.86 9.70764 418.977 6.63066 424.265 4.55045C429.552 2.38357 435.662 1.30013 442.596 1.30013C453.084 1.30013 461.535 3.81371 467.949 8.84088C474.45 13.8681 477.7 21.1054 477.7 30.5531H456.508C456.508 22.7523 451.221 18.8519 440.646 18.8519C437.266 18.8519 434.449 19.5886 432.195 21.0621C430.028 22.4489 428.945 24.3991 428.945 26.9127C428.945 28.9929 429.985 30.5964 432.065 31.7232C434.146 32.7633 437.222 33.6734 441.296 34.4534L448.447 35.7536C454.601 36.8804 459.758 38.2238 463.918 39.784C468.166 41.3441 471.719 43.9011 474.58 47.4548C477.527 50.9218 479 55.6889 479 61.7562C479 70.6838 475.75 77.5744 469.249 82.4283C462.748 87.2821 453.864 89.709 442.596 89.709Z" fill="black"/>
<g clip-path="url(#clip0_2498_156722)">
<path d="M402.546 56.9618H377.459L395.187 74.6894C393.634 76.97 391.871 79.1165 389.916 81.0713C389.801 81.2055 389.667 81.3396 389.533 81.4738C387.578 83.4094 385.432 85.1726 383.151 86.7441C381.924 87.5874 380.64 88.3731 379.337 89.1014L373.166 76.7592L368.816 68.0583L367.302 64.9919L366.324 63.0754L365.423 61.2548L364.561 59.5299C364.043 58.5334 363.392 57.6709 362.587 56.9618C362.204 56.6169 361.801 56.3102 361.36 56.0419C361.169 55.9078 360.977 55.8119 360.766 55.6969C359.54 55.0837 358.217 54.777 356.895 54.777C355.266 54.777 353.752 55.2178 352.43 56.0228C351.989 56.2911 351.567 56.5977 351.184 56.9618C350.398 57.6518 349.727 58.5142 349.229 59.5108L348.386 61.1973L347.428 63.0946L346.488 65.0111L344.974 68.0008L340.566 76.8359L337.5 82.9878L334.453 89.0822C333.15 88.3731 331.885 87.5874 330.658 86.7441C328.301 85.1343 326.097 83.2944 324.085 81.2821C322.072 79.2698 320.232 77.0658 318.603 74.6894L336.331 56.9618H311.263C310.746 54.2021 310.478 51.3657 310.478 48.4526C310.478 45.5395 310.746 42.684 311.263 39.9242H336.331L318.623 22.2158C320.232 19.8394 322.072 17.6354 324.085 15.6231C326.097 13.6108 328.301 11.7709 330.658 10.1611L348.386 27.8886V2.82092C351.146 2.30347 353.982 2.03516 356.895 2.03516C359.808 2.03516 362.664 2.30347 365.423 2.82092V27.8886L383.151 10.1611C385.508 11.7709 387.712 13.6108 389.724 15.6231C391.737 17.6354 393.577 19.8394 395.187 22.1967L377.459 39.9242H402.546C403.063 42.684 403.332 45.5395 403.332 48.4526C403.332 51.3657 403.063 54.2021 402.546 56.9618Z" fill="black"/>
<path d="M378.321 103.839C377.631 104.49 376.75 104.816 375.849 104.816C375.274 104.816 374.699 104.682 374.182 104.414L365.826 99.91L364.331 99.1051L359.425 96.4604C358.639 96.0387 357.757 95.8279 356.914 95.8279C356.071 95.8279 355.189 96.0387 354.404 96.4604L349.459 99.1243L347.983 99.91L339.647 104.414C339.129 104.682 338.535 104.816 337.96 104.816C337.079 104.816 336.178 104.49 335.507 103.839C334.376 102.785 334.07 101.117 334.74 99.7184L336.772 95.6363L338.957 91.2858L341.985 85.2297L348.386 72.4084L349.459 70.2619L350.992 67.2338L351.816 65.5857L351.931 65.3365L353.714 61.7527C354.231 60.7178 355.209 60.047 356.282 59.8745C356.473 59.817 356.684 59.7979 356.895 59.7979C357.106 59.7979 357.317 59.817 357.527 59.8553C357.853 59.9128 358.16 60.0087 358.467 60.162C359.156 60.5261 359.712 61.0819 360.057 61.7527L361.84 65.3557L361.916 65.509L362.798 67.2338L364.331 70.3002L365.423 72.485L374.814 91.2858L376.999 95.6363L379.031 99.7184C379.72 101.117 379.414 102.766 378.321 103.839Z" fill="url(#paint0_linear_2498_156722)"/>
</g>
<defs>
<linearGradient id="paint0_linear_2498_156722" x1="336.173" y1="106.743" x2="374.029" y2="83.1564" gradientUnits="userSpaceOnUse">
<stop stop-color="#5735FC"/>
<stop offset="0.385" stop-color="#FE49FE"/>
<stop offset="0.69" stop-color="#F2A4F2"/>
<stop offset="1" stop-color="#F9C391"/>
</linearGradient>
<clipPath id="clip0_2498_156722">
<rect width="92.8541" height="102.781" fill="white" transform="translate(310.478 2.03516)"/>
</clipPath>
</defs>
</svg>
