<svg width="271" height="300" viewBox="0 0 271 300" fill="none" xmlns="http://www.w3.org/2000/svg">
<g clip-path="url(#clip0_2498_156715)">
<path d="M268.183 159.994H195.108L246.746 211.632C242.224 218.276 237.089 224.528 231.394 230.222C231.059 230.613 230.669 231.004 230.278 231.394C224.584 237.033 218.331 242.169 211.688 246.746C208.115 249.203 204.375 251.491 200.579 253.613L182.603 217.661L169.931 192.317L165.521 183.385L162.674 177.802L160.05 172.499L157.538 167.475C156.031 164.572 154.133 162.06 151.788 159.994C150.672 158.989 149.499 158.096 148.215 157.315C147.657 156.924 147.099 156.645 146.485 156.31C142.912 154.523 139.06 153.63 135.208 153.63C130.463 153.63 126.053 154.914 122.201 157.259C120.917 158.04 119.689 158.934 118.572 159.994C116.283 162.004 114.33 164.516 112.878 167.419L110.422 172.332L107.631 177.858L104.895 183.441L100.485 192.149L87.6452 217.885L78.7132 235.805L69.837 253.557C66.0409 251.491 62.3565 249.203 58.7837 246.746C51.9172 242.057 45.4973 236.698 39.6357 230.836C33.7741 224.975 28.4149 218.555 23.6698 211.632L75.3079 159.994H2.28882C0.781549 151.956 0 143.693 0 135.208C0 126.723 0.781549 118.405 2.28882 110.366H75.3079L23.7256 58.7837C28.4149 51.8614 33.7741 45.4415 39.6357 39.5799C45.4973 33.7183 51.9172 28.3591 58.7837 23.6698L110.422 75.3079V2.28882C118.461 0.781549 126.723 0 135.208 0C143.693 0 152.011 0.781549 160.05 2.28882V75.3079L211.688 23.6698C218.555 28.3591 224.975 33.7183 230.836 39.5799C236.698 45.4415 242.057 51.8614 246.746 58.7279L195.108 110.366H268.183C269.69 118.405 270.472 126.723 270.472 135.208C270.472 143.693 269.69 151.956 268.183 159.994Z" fill="black"/>
<path d="M197.62 296.543C195.611 298.441 193.043 299.39 190.419 299.39C188.744 299.39 187.069 298.999 185.562 298.217L161.222 285.098L156.868 282.754L142.577 275.05C140.288 273.822 137.72 273.208 135.264 273.208C132.808 273.208 130.24 273.822 127.951 275.05L113.548 282.81L109.249 285.098L84.9656 298.217C83.4583 298.999 81.7277 299.39 80.053 299.39C77.485 299.39 74.8613 298.441 72.9074 296.543C69.6137 293.472 68.7205 288.615 70.6744 284.54L76.5918 272.65L82.9559 259.977L91.7762 242.337L110.422 204.99L113.548 198.737L118.014 189.917L120.414 185.116L120.749 184.39L125.941 173.951C127.448 170.936 130.295 168.983 133.422 168.48C133.98 168.313 134.594 168.257 135.208 168.257C135.822 168.257 136.436 168.313 137.05 168.424C137.999 168.592 138.892 168.871 139.786 169.318C141.795 170.378 143.414 171.997 144.419 173.951L149.611 184.446L149.834 184.893L152.402 189.917L156.868 198.849L160.05 205.213L187.404 259.977L193.768 272.65L199.686 284.54C201.696 288.615 200.802 293.416 197.62 296.543Z" fill="url(#paint0_linear_2498_156715)"/>
</g>
<defs>
<linearGradient id="paint0_linear_2498_156715" x1="74.8477" y1="305.003" x2="185.116" y2="236.297" gradientUnits="userSpaceOnUse">
<stop stop-color="#5735FC"/>
<stop offset="0.385" stop-color="#FE49FE"/>
<stop offset="0.69" stop-color="#F2A4F2"/>
<stop offset="1" stop-color="#F9C391"/>
</linearGradient>
<clipPath id="clip0_2498_156715">
<rect width="270.472" height="299.389" fill="white"/>
</clipPath>
</defs>
</svg>
