<svg width="17" height="17" viewBox="0 0 17 17" fill="none" xmlns="http://www.w3.org/2000/svg">
<path d="M1.30566 13.6936L3.71997 11.1946C4.25176 10.6442 5.12136 10.6063 5.69898 11.1084L6.58846 11.8816L8.98222 9.12793C9.50362 8.52813 10.4125 8.46457 11.0123 8.98597L12.6141 10.3784M12.9639 12.5813L13.4137 12.662C14.2563 12.8132 15.0437 12.1999 15.1034 11.346L15.6943 2.89655C15.7497 2.10374 15.1519 1.41609 14.3591 1.36065L5.67768 0.753588C4.91206 0.700051 4.23917 1.25678 4.14838 2.01887L3.91865 3.94717M5.92844 7.60018C5.95616 7.99658 5.65728 8.34041 5.26087 8.36813C4.86447 8.39585 4.52064 8.09697 4.49293 7.70056C4.46521 7.30415 4.76409 6.96033 5.16049 6.93261C5.5569 6.90489 5.90072 7.20377 5.92844 7.60018ZM2.89175 15.7465L11.5048 15.1442C12.2977 15.0887 12.8954 14.4011 12.84 13.6083L12.2377 4.99519C12.1823 4.20238 11.4946 3.60462 10.7018 3.66005L2.0887 4.26234C1.29589 4.31778 0.698126 5.00542 0.753565 5.79824L1.35585 14.4113C1.41129 15.2041 2.09893 15.8019 2.89175 15.7465Z" stroke="black" stroke-width="1.5" stroke-linecap="round" stroke-linejoin="round"/>
</svg>
